<mxfile host="Electron" agent="Mozilla/5.0 (Windows NT 10.0; Win64; x64) AppleWebKit/537.36 (KHTML, like Gecko) draw.io/25.0.2 Chrome/128.0.6613.186 Electron/32.2.5 Safari/537.36" version="25.0.2">
  <diagram name="Page-1" id="MD-SIQfdSmmDvY8Th1Dw">
    <mxGraphModel dx="1102" dy="702" grid="1" gridSize="10" guides="1" tooltips="1" connect="1" arrows="1" fold="1" page="1" pageScale="1" pageWidth="850" pageHeight="1100" math="0" shadow="0">
      <root>
        <mxCell id="0" />
        <mxCell id="1" parent="0" />
        <mxCell id="a5_6_NBIToDzzkJPBMzo-4" style="edgeStyle=orthogonalEdgeStyle;rounded=0;orthogonalLoop=1;jettySize=auto;html=1;exitX=1;exitY=0.5;exitDx=0;exitDy=0;" edge="1" parent="1" source="a5_6_NBIToDzzkJPBMzo-1" target="a5_6_NBIToDzzkJPBMzo-3">
          <mxGeometry relative="1" as="geometry" />
        </mxCell>
        <mxCell id="a5_6_NBIToDzzkJPBMzo-1" value="读取人脸图片" style="rounded=1;whiteSpace=wrap;html=1;fillColor=#dae8fc;strokeColor=#6c8ebf;" vertex="1" parent="1">
          <mxGeometry x="80" y="240" width="120" height="40" as="geometry" />
        </mxCell>
        <mxCell id="a5_6_NBIToDzzkJPBMzo-2" value="" style="points=[];aspect=fixed;html=1;align=center;shadow=0;dashed=0;fillColor=#FF6A00;strokeColor=none;shape=mxgraph.alibaba_cloud.face_recognition;" vertex="1" parent="1">
          <mxGeometry x="116.3" y="180.6" width="47.400000000000006" height="46.800000000000004" as="geometry" />
        </mxCell>
        <mxCell id="a5_6_NBIToDzzkJPBMzo-7" style="edgeStyle=orthogonalEdgeStyle;rounded=0;orthogonalLoop=1;jettySize=auto;html=1;exitX=1;exitY=0.5;exitDx=0;exitDy=0;" edge="1" parent="1" source="a5_6_NBIToDzzkJPBMzo-3" target="a5_6_NBIToDzzkJPBMzo-6">
          <mxGeometry relative="1" as="geometry" />
        </mxCell>
        <mxCell id="a5_6_NBIToDzzkJPBMzo-3" value="提取特征向量" style="rounded=1;whiteSpace=wrap;html=1;fillColor=#ffe6cc;strokeColor=#d79b00;" vertex="1" parent="1">
          <mxGeometry x="280" y="240" width="120" height="40" as="geometry" />
        </mxCell>
        <mxCell id="a5_6_NBIToDzzkJPBMzo-5" value="" style="sketch=0;outlineConnect=0;fontColor=#232F3E;gradientColor=none;fillColor=#ED7100;strokeColor=none;dashed=0;verticalLabelPosition=bottom;verticalAlign=top;align=center;html=1;fontSize=12;fontStyle=0;aspect=fixed;pointerEvents=1;shape=mxgraph.aws4.lambda_function;" vertex="1" parent="1">
          <mxGeometry x="316" y="180" width="48" height="48" as="geometry" />
        </mxCell>
        <mxCell id="a5_6_NBIToDzzkJPBMzo-10" style="edgeStyle=orthogonalEdgeStyle;rounded=0;orthogonalLoop=1;jettySize=auto;html=1;exitX=1;exitY=0.5;exitDx=0;exitDy=0;" edge="1" parent="1" source="a5_6_NBIToDzzkJPBMzo-6" target="a5_6_NBIToDzzkJPBMzo-9">
          <mxGeometry relative="1" as="geometry" />
        </mxCell>
        <mxCell id="a5_6_NBIToDzzkJPBMzo-6" value="向量标准化" style="rounded=1;whiteSpace=wrap;html=1;fillColor=#d5e8d4;strokeColor=#82b366;" vertex="1" parent="1">
          <mxGeometry x="480" y="240" width="120" height="40" as="geometry" />
        </mxCell>
        <mxCell id="a5_6_NBIToDzzkJPBMzo-8" value="" style="editableCssRules=.*;html=1;shape=image;verticalLabelPosition=bottom;labelBackgroundColor=#ffffff;verticalAlign=top;aspect=fixed;imageAspect=0;image=data:image/svg+xml,PHN2ZyB4bWxucz0iaHR0cDovL3d3dy53My5vcmcvMjAwMC9zdmciIHhtbG5zOnY9Imh0dHBzOi8vdmVjdGEuaW8vbmFubyIgd2lkdGg9IjE4IiBoZWlnaHQ9IjE4IiB2aWV3Qm94PSIwIDAgMTggMTgiPiYjeGE7CTxzdHlsZSB0eXBlPSJ0ZXh0L2NzcyI+JiN4YTsJLnN0MHtmaWxsOiM0Mjg1ZjQ7fSYjeGE7CTwvc3R5bGU+JiN4YTsJPHBhdGggY2xhc3M9InN0MCIgZD0iTTE2IDBIMmEyIDIgMCAwIDAtMiAydjE0YTIgMiAwIDAgMCAyIDJoMTRhMiAyIDAgMCAwIDItMlYyYTIgMiAwIDAgMC0yLTJ6TTkgMTRIN1Y2SDV2OEgzVjRoNGEyIDIgMCAwIDEgMiAyem02IDBoLTJWNmgtMlY0aDR6Ii8+JiN4YTs8L3N2Zz4=;" vertex="1" parent="1">
          <mxGeometry x="522" y="186" width="36" height="36" as="geometry" />
        </mxCell>
        <mxCell id="a5_6_NBIToDzzkJPBMzo-19" style="edgeStyle=orthogonalEdgeStyle;rounded=0;orthogonalLoop=1;jettySize=auto;html=1;exitX=1;exitY=0.5;exitDx=0;exitDy=0;entryX=1;entryY=0.5;entryDx=0;entryDy=0;" edge="1" parent="1" source="a5_6_NBIToDzzkJPBMzo-9" target="a5_6_NBIToDzzkJPBMzo-11">
          <mxGeometry relative="1" as="geometry">
            <Array as="points">
              <mxPoint x="840" y="260" />
              <mxPoint x="840" y="420" />
            </Array>
          </mxGeometry>
        </mxCell>
        <mxCell id="a5_6_NBIToDzzkJPBMzo-9" value="获取 K&amp;nbsp;值" style="rounded=1;whiteSpace=wrap;html=1;fillColor=#e1d5e7;strokeColor=#9673a6;" vertex="1" parent="1">
          <mxGeometry x="680" y="240" width="120" height="40" as="geometry" />
        </mxCell>
        <mxCell id="a5_6_NBIToDzzkJPBMzo-15" style="edgeStyle=orthogonalEdgeStyle;rounded=0;orthogonalLoop=1;jettySize=auto;html=1;exitX=0;exitY=0.5;exitDx=0;exitDy=0;" edge="1" parent="1" source="a5_6_NBIToDzzkJPBMzo-11" target="a5_6_NBIToDzzkJPBMzo-12">
          <mxGeometry relative="1" as="geometry" />
        </mxCell>
        <mxCell id="a5_6_NBIToDzzkJPBMzo-11" value="K-Means 聚类分析" style="rounded=1;whiteSpace=wrap;html=1;fillColor=#e1d5e7;strokeColor=#9673a6;" vertex="1" parent="1">
          <mxGeometry x="680" y="400" width="120" height="40" as="geometry" />
        </mxCell>
        <mxCell id="a5_6_NBIToDzzkJPBMzo-16" style="edgeStyle=orthogonalEdgeStyle;rounded=0;orthogonalLoop=1;jettySize=auto;html=1;exitX=0;exitY=0.5;exitDx=0;exitDy=0;" edge="1" parent="1" source="a5_6_NBIToDzzkJPBMzo-12" target="a5_6_NBIToDzzkJPBMzo-13">
          <mxGeometry relative="1" as="geometry" />
        </mxCell>
        <mxCell id="a5_6_NBIToDzzkJPBMzo-12" value="PCA&amp;nbsp;降维" style="rounded=1;whiteSpace=wrap;html=1;fillColor=#fff2cc;strokeColor=#d6b656;" vertex="1" parent="1">
          <mxGeometry x="480" y="400" width="120" height="40" as="geometry" />
        </mxCell>
        <mxCell id="a5_6_NBIToDzzkJPBMzo-17" style="edgeStyle=orthogonalEdgeStyle;rounded=0;orthogonalLoop=1;jettySize=auto;html=1;exitX=0;exitY=0.5;exitDx=0;exitDy=0;" edge="1" parent="1" source="a5_6_NBIToDzzkJPBMzo-13" target="a5_6_NBIToDzzkJPBMzo-14">
          <mxGeometry relative="1" as="geometry" />
        </mxCell>
        <mxCell id="a5_6_NBIToDzzkJPBMzo-13" value="数据可视化" style="rounded=1;whiteSpace=wrap;html=1;fillColor=#dae8fc;strokeColor=#6c8ebf;" vertex="1" parent="1">
          <mxGeometry x="280" y="400" width="120" height="40" as="geometry" />
        </mxCell>
        <mxCell id="a5_6_NBIToDzzkJPBMzo-14" value="验证结果" style="rounded=1;whiteSpace=wrap;html=1;fillColor=#d5e8d4;strokeColor=#82b366;" vertex="1" parent="1">
          <mxGeometry x="80" y="400" width="120" height="40" as="geometry" />
        </mxCell>
        <mxCell id="a5_6_NBIToDzzkJPBMzo-21" value="" style="verticalLabelPosition=bottom;shadow=0;dashed=0;align=center;html=1;verticalAlign=top;strokeWidth=1;shape=mxgraph.mockup.graphics.bubbleChart;strokeColor=none;strokeColor2=none;strokeColor3=#666666;fillColor2=#008cff;fillColor3=#dddddd;" vertex="1" parent="1">
          <mxGeometry x="320" y="350" width="50" height="40" as="geometry" />
        </mxCell>
        <mxCell id="a5_6_NBIToDzzkJPBMzo-22" value="" style="points=[];aspect=fixed;html=1;align=center;shadow=0;dashed=0;fillColor=#FF6A00;strokeColor=none;shape=mxgraph.alibaba_cloud.nlp-sa_sentiment_analysis;" vertex="1" parent="1">
          <mxGeometry x="717" y="343" width="47.400000000000006" height="47.400000000000006" as="geometry" />
        </mxCell>
        <mxCell id="a5_6_NBIToDzzkJPBMzo-23" value="" style="shape=umlActor;verticalLabelPosition=bottom;verticalAlign=top;html=1;outlineConnect=0;" vertex="1" parent="1">
          <mxGeometry x="125" y="330.4" width="30" height="60" as="geometry" />
        </mxCell>
        <mxCell id="a5_6_NBIToDzzkJPBMzo-25" value="" style="sketch=0;html=1;aspect=fixed;strokeColor=none;shadow=0;fillColor=#3B8DF1;verticalAlign=top;labelPosition=center;verticalLabelPosition=bottom;shape=mxgraph.gcp2.process" vertex="1" parent="1">
          <mxGeometry x="717" y="167.88" width="50" height="59.52" as="geometry" />
        </mxCell>
        <mxCell id="a5_6_NBIToDzzkJPBMzo-26" value="" style="sketch=0;html=1;aspect=fixed;strokeColor=none;shadow=0;fillColor=#3B8DF1;verticalAlign=top;labelPosition=center;verticalLabelPosition=bottom;shape=mxgraph.gcp2.process" vertex="1" parent="1">
          <mxGeometry x="515" y="330.88" width="50" height="59.52" as="geometry" />
        </mxCell>
      </root>
    </mxGraphModel>
  </diagram>
</mxfile>
